<svg width="26" height="23" viewBox="0 0 26 23" fill="none" xmlns="http://www.w3.org/2000/svg">
<path d="M6.62623 0.523926C0.407209 0.523926 0.446051 6.82686 0.446051 6.82686V10.4276C0.446051 10.4276 1.86191 6.82686 5.7822 6.82686H6.16271H18.9865C25.3068 6.82686 25.1678 0.592636 25.1664 0.534081H25.1513L25.1667 0.524255H21.8732H13.8794L6.62623 0.523926ZM6.62623 8.4029C0.407209 8.4029 0.446051 14.7058 0.446051 14.7058V18.3066C0.446051 18.3066 1.86191 14.7058 5.7822 14.7058H6.16271H18.9865C25.3068 14.7058 25.1678 8.4716 25.1664 8.41305H25.1513L25.1667 8.40322H21.8732C21.8732 8.40322 16.4206 8.40328 13.8794 8.40322C11.3383 8.40317 6.62623 8.40291 6.62623 8.40291V8.4029Z" fill="#FF5C5C"/>
<path d="M6.62622 16.2766C0.407215 16.2766 0.446051 22.5795 0.446051 22.5795H7.70773H7.86223C14.1826 22.5795 14.0435 16.3453 14.0421 16.2867H14.027L14.0424 16.2769H10.7489H6.61774L6.62622 16.2766Z" fill="#FF5C5C"/>
</svg>